<svg width="284" height="171" viewBox="0 0 284 171" fill="none" xmlns="http://www.w3.org/2000/svg">
<path d="M18.6229 125.205L16.9174 118.481C13.8934 117.2 10.7996 116.091 7.65056 115.158L7.43523 118.283L6.56206 114.84C2.65677 113.726 0 113.235 0 113.235C0 113.235 3.58868 126.875 11.1157 137.303L19.8863 138.843L13.0726 139.825C14.0199 140.964 15.0378 142.042 16.1205 143.054C27.0701 153.213 39.266 157.874 43.3607 153.464C47.4554 149.055 41.8983 137.245 30.9487 127.086C27.5542 123.937 23.29 121.409 19.0215 119.42L18.6229 125.205Z" fill="#E6E6E6"/>
<path d="M34.843 117.903L36.86 111.266C34.9338 108.607 32.8591 106.059 30.6457 103.634L28.8455 106.197L29.8782 102.799C27.1115 99.8275 25.0911 98.0345 25.0911 98.0345C25.0911 98.0345 21.1092 111.565 22.1598 124.381L28.8715 130.231L22.5309 127.551C22.7528 129.016 23.0666 130.465 23.4705 131.89C27.5903 146.244 35.6201 156.535 41.4056 154.876C47.1911 153.217 48.5414 140.236 44.4216 125.882C43.1444 121.432 40.801 117.065 38.1757 113.157L34.843 117.903Z" fill="#E6E6E6"/>
<path d="M284 155.874H0.0255127V156.591H284V155.874Z" fill="#3F3D56"/>
<path d="M44.8916 81.7052C44.8916 81.7052 42.6802 108.283 42.2053 113.978C41.8798 117.548 41.0814 121.059 39.8313 124.419C39.8313 124.419 38.8816 126.318 38.8816 128.216V152.421C38.8816 152.421 36.9824 152.421 37.4572 154.319C37.932 156.217 38.4068 159.54 38.4068 159.54H45.5291C45.5291 159.54 45.0542 158.116 46.4787 157.641C47.9031 157.167 46.4787 153.37 46.4787 153.37L54.0757 124.894L65.4713 101.164C65.4713 101.164 72.1187 122.521 73.5432 124.894C73.5432 124.894 78.7662 151.471 79.7158 153.844C80.6654 156.217 81.1402 156.217 80.6654 157.167C80.1906 158.116 80.1906 159.065 80.6654 159.54C81.1402 160.014 90.1617 159.54 90.1617 159.54L87.7877 125.843L83.5143 85.5024L61.6728 78.858L44.8916 81.7052Z" fill="#2F2E41"/>
<path d="M43.6298 155.743C43.6298 155.743 41.2557 147.2 37.4571 153.844C33.6586 160.489 33.6586 162.862 33.6586 162.862C33.6586 162.862 27.486 171.879 36.0327 170.93C44.5794 169.981 42.6801 165.709 42.6801 165.709C42.6801 165.709 46.0038 163.811 46.0038 162.387C46.0038 160.963 43.6298 155.743 43.6298 155.743Z" fill="#2F2E41"/>
<path d="M82.0899 154.794C82.0899 154.794 84.464 146.251 88.2625 152.895C92.061 159.54 92.061 161.913 92.061 161.913C92.061 161.913 98.2336 170.93 89.6869 169.981C81.1403 169.032 83.0395 164.76 83.0395 164.76C83.0395 164.76 79.7158 162.862 79.7158 161.438C79.7158 160.014 82.0899 154.794 82.0899 154.794Z" fill="#2F2E41"/>
<path d="M59.7735 17.6349C59.7735 17.6349 60.7231 23.8047 57.8742 25.2285C55.0253 26.6523 64.0468 31.8729 66.4209 31.8729C68.795 31.8729 73.0683 27.1269 73.0683 27.1269C73.0683 27.1269 70.6943 20.0079 71.1691 18.5841L59.7735 17.6349Z" fill="#A0616A"/>
<path d="M64.9965 22.3809C70.5034 22.3809 74.9676 17.9187 74.9676 12.4144C74.9676 6.90999 70.5034 2.44781 64.9965 2.44781C59.4896 2.44781 55.0254 6.90999 55.0254 12.4144C55.0254 17.9187 59.4896 22.3809 64.9965 22.3809Z" fill="#A0616A"/>
<path d="M84.4639 32.8221L72.5939 25.6337C72.5939 25.6337 65.8402 33.2967 58.5335 24.7539L46.0039 28.0761L47.9031 60.3487C47.9031 60.3487 45.0542 73.1629 46.0039 75.5359C46.9535 77.9088 43.6298 78.858 44.5794 79.3326C45.529 79.8072 44.5794 83.1294 44.5794 83.1294C44.5794 83.1294 63.0972 92.6214 83.5143 85.5024L81.615 79.3326C81.8735 78.5261 81.922 77.667 81.7558 76.8366C81.5896 76.0061 81.2144 75.2318 80.6654 74.5867C80.6654 74.5867 82.5647 71.7391 80.1906 69.3661C80.1906 69.3661 81.1402 65.0947 78.7661 63.1963L78.2913 56.552L79.7158 53.2298L84.4639 32.8221Z" fill="#CFCCE0"/>
<path d="M59.8935 7.78662C59.8935 7.78662 58.7048 10.3581 63.4598 9.32948C63.4598 9.32948 65.243 10.3581 65.243 8.81519C65.243 8.81519 67.6205 11.3866 68.2149 9.84377C68.8093 8.3009 69.9981 10.3581 69.9981 10.3581L71.1868 7.78662L72.3756 9.32948H76.5362C76.5362 9.32948 77.725 -0.956273 63.4598 0.0723037C49.1947 1.10088 56.2124 17.3976 56.2124 17.3976C56.2124 17.3976 56.3273 14.4724 57.516 16.0152C58.7048 17.5581 59.8935 7.78662 59.8935 7.78662Z" fill="#2F2E41"/>
<path d="M88.7373 51.806L89.2121 61.7725C89.2121 61.7725 91.1114 80.2818 87.3128 88.35V92.6214C87.3128 92.6214 86.3632 103.537 81.615 103.063C76.8669 102.588 83.0395 87.4008 83.0395 87.4008L82.0899 66.5185L81.1402 54.6536L88.7373 51.806Z" fill="#A0616A"/>
<path d="M79.241 33.2967L83.9775 32.5275C87.3895 35.8043 89.7137 40.0483 90.6366 44.687C92.061 52.2806 92.5358 53.7044 92.5358 53.7044L81.1403 56.552L74.9677 44.687L79.241 33.2967Z" fill="#CFCCE0"/>
<path d="M133.777 27.8804H58.8469V65.0852H133.777V27.8804Z" fill="white"/>
<path d="M67.0289 30.1177C65.1038 28.9606 62.7827 29.049 61.9003 29.1374C62.2363 29.9574 63.2446 32.0491 65.1696 33.2068C67.0994 34.3668 69.4174 34.2758 70.2985 34.188C69.9626 33.3683 68.9542 31.2757 67.0289 30.1177Z" fill="#1A4F8B"/>
<path d="M76.0747 53.0787H64.0431C63.6873 53.0783 63.335 53.148 63.0062 53.2838C62.6774 53.4196 62.3786 53.6189 62.1269 53.8702C61.8753 54.1215 61.6756 54.4199 61.5394 54.7484C61.4031 55.0769 61.333 55.429 61.333 55.7846C61.333 56.1402 61.4031 56.4923 61.5394 56.8208C61.6756 57.1492 61.8753 57.4477 62.1269 57.699C62.3786 57.9503 62.6774 58.1495 63.0062 58.2853C63.335 58.4211 63.6873 58.4908 64.0431 58.4905H76.0747C76.4305 58.4908 76.7828 58.4211 77.1116 58.2853C77.4404 58.1495 77.7392 57.9503 77.9909 57.699C78.2426 57.4477 78.4422 57.1492 78.5785 56.8208C78.7147 56.4923 78.7848 56.1402 78.7848 55.7846C78.7848 55.429 78.7147 55.0769 78.5785 54.7484C78.4422 54.4199 78.2426 54.1215 77.9909 53.8702C77.7392 53.6189 77.4404 53.4196 77.1116 53.2838C76.7828 53.148 76.4305 53.0783 76.0747 53.0787Z" fill="#1A4F8B"/>
<path d="M130.558 24.5166H63.1004C62.3157 24.5166 61.5387 24.6711 60.8137 24.9713C60.0887 25.2714 59.43 25.7114 58.8751 26.266C58.3202 26.8206 57.88 27.4791 57.5797 28.2037C57.2794 28.9284 57.1249 29.7051 57.1249 30.4894V63.3412C57.1249 64.9253 57.7544 66.4445 58.8751 67.5646C59.9957 68.6847 61.5156 69.314 63.1004 69.314H130.558C132.143 69.314 133.663 68.6847 134.784 67.5646C135.904 66.4445 136.534 64.9253 136.534 63.3412V30.4894C136.534 29.7051 136.379 28.9284 136.079 28.2037C135.779 27.4791 135.339 26.8206 134.784 26.266C134.229 25.7114 133.57 25.2714 132.845 24.9713C132.12 24.6711 131.343 24.5166 130.558 24.5166ZM61.4314 28.591C61.5646 28.5669 64.7234 28.0296 67.339 29.6028C69.9545 31.1756 70.9594 34.2171 71.0008 34.3457L71.1066 34.6737L70.7671 34.7338C70.2829 34.8094 69.7933 34.8453 69.3033 34.8413C67.7486 34.871 66.2143 34.4845 64.8594 33.7218C62.2439 32.1492 61.2392 29.1077 61.1978 28.9791L61.092 28.6512L61.4314 28.591ZM76.0748 59.0918H64.0431C63.1656 59.0918 62.324 58.7433 61.7035 58.1231C61.083 57.5029 60.7344 56.6617 60.7344 55.7846C60.7344 54.9075 61.083 54.0663 61.7035 53.4461C62.324 52.8258 63.1656 52.4774 64.0431 52.4774H76.0748C76.9523 52.4774 77.7939 52.8258 78.4144 53.4461C79.0349 54.0663 79.3835 54.9075 79.3835 55.7846C79.3835 56.6617 79.0349 57.5029 78.4144 58.1231C77.7939 58.7433 76.9523 59.0918 76.0748 59.0918ZM130.819 58.4905C130.816 59.4465 130.435 60.3625 129.759 61.0385C129.082 61.7145 128.166 62.0955 127.209 62.0983H118.186C117.229 62.0955 116.313 61.7145 115.636 61.0385C114.96 60.3625 114.579 59.4465 114.576 58.4905V53.0787C114.579 52.1227 114.96 51.2067 115.636 50.5307C116.313 49.8547 117.229 49.4737 118.186 49.4709H127.209C128.166 49.4737 129.082 49.8547 129.759 50.5307C130.435 51.2067 130.816 52.1227 130.819 53.0787V58.4905Z" fill="#1A4F8B"/>
<path d="M121.043 57.4382H117.133C116.854 57.4382 116.586 57.549 116.388 57.7464C116.191 57.9437 116.08 58.2114 116.08 58.4905C116.08 58.7695 116.191 59.0372 116.388 59.2345C116.586 59.4319 116.854 59.5427 117.133 59.5427H121.043C121.322 59.5427 121.59 59.4319 121.788 59.2345C121.985 59.0372 122.096 58.7695 122.096 58.4905C122.096 58.2114 121.985 57.9437 121.788 57.7464C121.59 57.549 121.322 57.4382 121.043 57.4382ZM121.043 58.9414H117.133C117.073 58.9416 117.015 58.93 116.96 58.9075C116.905 58.8849 116.855 58.8517 116.813 58.8098C116.771 58.7679 116.738 58.7181 116.715 58.6633C116.692 58.6085 116.68 58.5498 116.68 58.4905C116.68 58.4311 116.692 58.3724 116.715 58.3176C116.738 58.2628 116.771 58.213 116.813 58.1711C116.855 58.1292 116.905 58.0961 116.96 58.0735C117.015 58.0509 117.073 58.0393 117.133 58.0395H121.043C121.163 58.0398 121.277 58.0875 121.361 58.172C121.446 58.2565 121.493 58.3711 121.493 58.4905C121.493 58.6099 121.446 58.7244 121.361 58.8089C121.277 58.8935 121.163 58.9411 121.043 58.9414Z" fill="#1A4F8B"/>
<path d="M128.262 57.4382H124.352C124.073 57.4382 123.805 57.549 123.607 57.7464C123.41 57.9437 123.299 58.2114 123.299 58.4905C123.299 58.7695 123.41 59.0372 123.607 59.2345C123.805 59.4319 124.073 59.5427 124.352 59.5427H128.262C128.541 59.5427 128.809 59.4319 129.007 59.2345C129.204 59.0372 129.315 58.7695 129.315 58.4905C129.315 58.2114 129.204 57.9437 129.007 57.7464C128.809 57.549 128.541 57.4382 128.262 57.4382ZM128.262 58.9414H124.352C124.292 58.9416 124.234 58.93 124.179 58.9075C124.124 58.8849 124.074 58.8517 124.032 58.8098C123.99 58.7679 123.957 58.7181 123.934 58.6633C123.911 58.6085 123.899 58.5498 123.899 58.4905C123.899 58.4311 123.911 58.3724 123.934 58.3176C123.957 58.2628 123.99 58.213 124.032 58.1711C124.074 58.1292 124.124 58.0961 124.179 58.0735C124.234 58.0509 124.292 58.0393 124.352 58.0395H128.262C128.382 58.0398 128.496 58.0875 128.58 58.172C128.665 58.2565 128.712 58.3711 128.712 58.4905C128.712 58.6099 128.665 58.7244 128.58 58.8089C128.496 58.8935 128.382 58.9411 128.262 58.9414Z" fill="#1A4F8B"/>
<path d="M121.043 54.7323H117.133C116.854 54.7323 116.586 54.8432 116.388 55.0405C116.191 55.2378 116.08 55.5055 116.08 55.7846C116.08 56.0637 116.191 56.3313 116.388 56.5286C116.586 56.726 116.854 56.8369 117.133 56.8369H121.043C121.322 56.8369 121.59 56.726 121.788 56.5286C121.985 56.3313 122.096 56.0637 122.096 55.7846C122.096 55.5055 121.985 55.2378 121.788 55.0405C121.59 54.8432 121.322 54.7323 121.043 54.7323ZM121.043 56.2355H117.133C117.074 56.2355 117.015 56.2239 116.96 56.2012C116.905 56.1786 116.856 56.1453 116.814 56.1035C116.772 56.0616 116.739 56.0119 116.716 55.9571C116.693 55.9024 116.682 55.8438 116.682 55.7846C116.682 55.7253 116.693 55.6667 116.716 55.612C116.739 55.5573 116.772 55.5076 116.814 55.4657C116.856 55.4238 116.905 55.3906 116.96 55.3679C117.015 55.3453 117.074 55.3336 117.133 55.3336H121.043C121.102 55.3336 121.161 55.3453 121.216 55.3679C121.271 55.3906 121.32 55.4238 121.362 55.4657C121.404 55.5076 121.437 55.5573 121.46 55.612C121.483 55.6667 121.494 55.7253 121.494 55.7846C121.494 55.8438 121.483 55.9024 121.46 55.9571C121.437 56.0119 121.404 56.0616 121.362 56.1035C121.32 56.1453 121.271 56.1786 121.216 56.2012C121.161 56.2239 121.102 56.2355 121.043 56.2355Z" fill="#1A4F8B"/>
<path d="M128.262 54.7323H124.352C124.073 54.7323 123.805 54.8432 123.607 55.0405C123.41 55.2378 123.299 55.5055 123.299 55.7846C123.299 56.0637 123.41 56.3313 123.607 56.5286C123.805 56.726 124.073 56.8369 124.352 56.8369H128.262C128.541 56.8369 128.809 56.726 129.007 56.5286C129.204 56.3313 129.315 56.0637 129.315 55.7846C129.315 55.5055 129.204 55.2378 129.007 55.0405C128.809 54.8432 128.541 54.7323 128.262 54.7323ZM128.262 56.2355H124.352C124.293 56.2355 124.234 56.2239 124.179 56.2012C124.124 56.1786 124.075 56.1453 124.033 56.1035C123.991 56.0616 123.958 56.0119 123.935 55.9571C123.912 55.9024 123.901 55.8438 123.901 55.7846C123.901 55.7253 123.912 55.6667 123.935 55.612C123.958 55.5573 123.991 55.5076 124.033 55.4657C124.075 55.4238 124.124 55.3906 124.179 55.3679C124.234 55.3453 124.293 55.3336 124.352 55.3336H128.262C128.321 55.3336 128.38 55.3453 128.435 55.3679C128.49 55.3906 128.539 55.4238 128.581 55.4657C128.623 55.5076 128.656 55.5573 128.679 55.612C128.702 55.6667 128.713 55.7253 128.713 55.7846C128.713 55.8438 128.702 55.9024 128.679 55.9571C128.656 56.0119 128.623 56.0616 128.581 56.1035C128.539 56.1453 128.49 56.1786 128.435 56.2012C128.38 56.2239 128.321 56.2355 128.262 56.2355Z" fill="#1A4F8B"/>
<path d="M121.043 52.0264H117.133C116.854 52.0264 116.586 52.1373 116.388 52.3346C116.191 52.532 116.08 52.7996 116.08 53.0787C116.08 53.3578 116.191 53.6254 116.388 53.8228C116.586 54.0201 116.854 54.131 117.133 54.131H121.043C121.322 54.131 121.59 54.0201 121.788 53.8228C121.985 53.6254 122.096 53.3578 122.096 53.0787C122.096 52.7996 121.985 52.532 121.788 52.3346C121.59 52.1373 121.322 52.0264 121.043 52.0264ZM121.043 53.5297H117.133C117.073 53.5298 117.015 53.5183 116.96 53.4957C116.905 53.4731 116.855 53.4399 116.813 53.398C116.771 53.3561 116.738 53.3064 116.715 53.2516C116.692 53.1968 116.68 53.138 116.68 53.0787C116.68 53.0194 116.692 52.9606 116.715 52.9058C116.738 52.851 116.771 52.8013 116.813 52.7594C116.855 52.7175 116.905 52.6843 116.96 52.6617C117.015 52.6391 117.073 52.6276 117.133 52.6277H121.043C121.163 52.628 121.277 52.6757 121.361 52.7602C121.446 52.8448 121.493 52.9593 121.493 53.0787C121.493 53.1981 121.446 53.3126 121.361 53.3972C121.277 53.4817 121.163 53.5294 121.043 53.5297Z" fill="#1A4F8B"/>
<path d="M128.262 52.0264H124.352C124.073 52.0264 123.805 52.1373 123.607 52.3346C123.41 52.532 123.299 52.7996 123.299 53.0787C123.299 53.3578 123.41 53.6254 123.607 53.8228C123.805 54.0201 124.073 54.131 124.352 54.131H128.262C128.541 54.131 128.809 54.0201 129.007 53.8228C129.204 53.6254 129.315 53.3578 129.315 53.0787C129.315 52.7996 129.204 52.532 129.007 52.3346C128.809 52.1373 128.541 52.0264 128.262 52.0264ZM128.262 53.5297H124.352C124.292 53.5298 124.234 53.5183 124.179 53.4957C124.124 53.4731 124.074 53.4399 124.032 53.398C123.99 53.3561 123.957 53.3064 123.934 53.2516C123.911 53.1968 123.899 53.138 123.899 53.0787C123.899 53.0194 123.911 52.9606 123.934 52.9058C123.957 52.851 123.99 52.8013 124.032 52.7594C124.074 52.7175 124.124 52.6843 124.179 52.6617C124.234 52.6391 124.292 52.6276 124.352 52.6277H128.262C128.382 52.628 128.496 52.6757 128.58 52.7602C128.665 52.8448 128.712 52.9593 128.712 53.0787C128.712 53.1981 128.665 53.3126 128.58 53.3972C128.496 53.4817 128.382 53.5294 128.262 53.5297Z" fill="#1A4F8B"/>
<path d="M38.8817 46.1108C38.8817 46.1108 34.6083 64.1455 39.8313 64.1455C45.0543 64.1455 57.3995 43.7378 57.3995 43.7378C57.3995 43.7378 70.2195 37.0934 64.9965 34.7205C59.7736 32.3475 53.1262 38.5172 53.1262 38.5172L45.456 49.1614L45.0543 43.7378L38.8817 46.1108Z" fill="#A0616A"/>
<path d="M48.8527 30.9237L46.0038 28.0761C46.0038 28.0761 40.306 31.3983 39.8312 34.7205C39.3564 38.0426 36.9823 48.4838 36.9823 48.4838L45.7664 49.1957L48.6153 44.9243L48.8527 30.9237Z" fill="#CFCCE0"/>
<path d="M183.81 24.1724C183.453 23.1167 178.967 19.528 181.716 18.9248L183.97 21.929L194.333 11.5706L195.375 12.6125L183.81 24.1724Z" fill="#1A4F8B"/>
<path d="M183.81 59.3953C183.453 58.3395 178.967 54.7509 181.716 54.1477L183.97 57.1519L194.333 46.7935L195.375 47.8353L183.81 59.3953Z" fill="#1A4F8B"/>
<path d="M183.81 95.1213C183.453 94.0656 178.967 90.4769 181.716 89.8738L183.97 92.878L194.333 82.5196L195.375 83.5614L183.81 95.1213Z" fill="#1A4F8B"/>
<path d="M215.201 23.0857C216.967 23.0857 218.399 21.6546 218.399 19.8893C218.399 18.124 216.967 16.6929 215.201 16.6929C213.435 16.6929 212.003 18.124 212.003 19.8893C212.003 21.6546 213.435 23.0857 215.201 23.0857Z" fill="#3F3D56"/>
<path d="M278.679 19.5696H227.193V20.2089H278.679V19.5696Z" fill="#3F3D56"/>
<path d="M215.201 58.3086C216.967 58.3086 218.399 56.8775 218.399 55.1122C218.399 53.3468 216.967 51.9157 215.201 51.9157C213.435 51.9157 212.003 53.3468 212.003 55.1122C212.003 56.8775 213.435 58.3086 215.201 58.3086Z" fill="#3F3D56"/>
<path d="M278.679 54.7925H227.193V55.4317H278.679V54.7925Z" fill="#3F3D56"/>
<path d="M215.201 94.0347C216.967 94.0347 218.399 92.6036 218.399 90.8382C218.399 89.0729 216.967 87.6418 215.201 87.6418C213.435 87.6418 212.003 89.0729 212.003 90.8382C212.003 92.6036 213.435 94.0347 215.201 94.0347Z" fill="#3F3D56"/>
<path d="M278.679 90.5185H227.193V91.1578H278.679V90.5185Z" fill="#3F3D56"/>
<path d="M191.888 99.884H175.898V83.5822H186.771V84.2214H176.538V99.2447H191.248V91.8929H191.888V99.884Z" fill="#3F3D56"/>
<path d="M191.888 64.0839H175.898V47.782H186.771V48.4213H176.538V63.4446H191.248V56.0928H191.888V64.0839Z" fill="#3F3D56"/>
<path d="M191.888 27.6444H175.898V11.3426H186.771V11.9819H176.538V27.0052H191.248V19.6533H191.888V27.6444Z" fill="#3F3D56"/>
</svg>
